Simulation
nRows=19
nColumns=15
endheader
time  TH_x TH_y TH_z SC_y  SC_z  SC_x  AC_y  AC_z  AC_x  GH_y  GH_z  GH_yy  EL_x  PS_y
7.203000000000001  0.000000  0.000000  0.000000  -24.61973438220969  3.506814393121802  -10.71588423028434  52.64384604818834  13.339828904902037  6.37189242951377  41.54817561662781  18.154391546228762  16.560422392315715  13.18503885598552  120.000000
7.251020000000001  0.000000  0.000000  0.000000  -24.64401659906108  3.5051299926053137  -11.597557697157814  52.73619411228222  14.122474876263404  6.993451763362753  41.83895543404893  21.187946192770724  14.655211527705577  12.592944407195645  120.000000
7.2990400000000015  0.000000  0.000000  0.000000  -24.791683574704003  3.6447151024237128  -12.289036301564808  52.926656389857875  15.089259181648528  7.7100659161249485  42.216797472830365  24.368166068288737  12.418345859079611  12.10563431084766  120.000000
7.347060000000001  0.000000  0.000000  0.000000  -25.001805389940607  3.9154332573855233  -12.73629739204548  53.1865879043476  16.208868230382397  8.530249193816658  42.58946024682482  27.606712455595982  9.983009803964599  11.71302843940763  120.000000
7.395080000000001  0.000000  0.000000  0.000000  -25.209991826534214  4.316869359793317  -12.906616643472752  53.509921415453725  17.4481138387765  9.429226329167818  42.90272548945952  30.823228196561953  7.453318414782838  11.394996938371596  120.000000
7.443100000000001  0.000000  0.000000  0.000000  -25.37976076446568  4.84553626431754  -12.78425344720841  53.88736174380821  18.760009174816087  10.374967541758872  43.116725403273904  33.94634863864937  4.9212782773072865  11.132651983309074  120.000000
7.491120000000001  0.000000  0.000000  0.000000  -25.51031510222652  5.48179627252243  -12.365048140092831  54.29427517342529  20.0777812239705  11.349691577417284  43.21156677662971  36.91933288050067  2.455937462763286  10.913871287814906  120.000000
7.5391400000000015  0.000000  0.000000  0.000000  -25.626163434815222  6.2016898914782415  -11.654673092595644  54.70846129395819  21.330743227200823  12.335920505290055  43.183647861912256  39.70796949089545  0.10188286357219016  10.731097958338243  120.000000
7.587160000000001  0.000000  0.000000  0.000000  -25.76512377473847  6.982494965092845  -10.662047968909386  55.11076612822584  22.454917297204922  13.315581754508882  43.035846392645105  42.29362477829732  -2.108642170355811  10.581180431814788  120.000000
7.635180000000001  0.000000  0.000000  0.000000  -25.964992760307496  7.80021689557451  -9.402657552098551  55.485132391466664  23.39934483565595  14.270461904761817  42.77406322239657  44.66824557607609  -4.15458927829092  10.461332507885693  120.000000
7.683200000000001  0.000000  0.000000  0.000000  -26.250846042528856  8.628732038678333  -7.9014510596708885  55.8177862758257  24.13076410723613  15.184270250763982  42.404095387440655  46.82702971220245  -6.023681011077271  10.369360174177817  120.000000
7.731220000000001  0.000000  0.000000  0.000000  -26.628133081579204  9.44217088724352  -6.196945667304619  56.101546398527745  24.637919816924743  16.041796746044213  41.93298143826798  48.767429688391076  -7.71380956321635  10.304398375366661  120.000000
7.7792400000000015  0.000000  0.000000  0.000000  -27.082069395404492  10.214003351673059  -4.340985052901759  56.33518770823212  24.928447008826033  16.832486119506996  41.36818326610318  50.4882468199121  -9.230687724320967  10.26664424450531  120.000000
7.827260000000001  0.000000  0.000000  0.000000  -27.586277011009  10.921819740263256  -2.3934689178471142  56.522842462655866  25.02461605520003  17.54790462515047  40.719679138155435  51.990005765775955  -10.584932187648805  10.256247213193442  120.000000
7.875280000000001  0.000000  0.000000  0.000000  -28.11327125605212  11.550089006408921  -0.41527439065887667  56.670887760564504  24.9569283589255  18.181989211360452  40.00302079183039  53.27861379017082  -11.78799027906341  10.27131218654467  120.000000
7.923300000000001  0.000000  0.000000  0.000000  -28.642772810023494  12.090760310423311  1.5407181611383403  56.785201587257255  24.759850398626888  18.731189002656954  39.24256936646944  54.36676044163136  -12.847881761908177  10.306105730467777  120.000000
7.971320000000001  0.000000  0.000000  0.000000  -29.164431703029393  12.543466031606805  3.4339345712714806  56.87096555658797  24.46864291161163  19.193835738125642  38.470467194711546  55.27490738176061  -13.766207816376195  10.350301122084538  120.000000
8.019340000000001  0.000000  0.000000  0.000000  -29.676746308112524  12.912656138629783  5.235848046925165  56.93085144509317  24.115459852414638  19.571015677799984  37.7233645308028  56.02681348555829  -14.539188713794546  10.390880849409328  120.000000
8.06736  0.000000  0.000000  0.000000  -30.18190378116792  13.205959334785865  6.926466966385673  56.96663607493852  23.7270083861138  19.865322774271558  37.03954705262103  56.64532164986266  -15.163701366829983  10.41551933325202  120.000000
